<svg xmlns="http://www.w3.org/2000/svg" version="1.1" xmlns:xlink="http://www.w3.org/1999/xlink" xmlns:svgjs="http://svgjs.dev/svgjs" width="1500" height="1007" viewBox="0 0 1500 1007"><g transform="matrix(1,0,0,1,-0.9090909090909918,-0.37331339935531105)"><svg viewBox="0 0 396 266" data-background-color="#ffffff" preserveAspectRatio="xMidYMid meet" height="1007" width="1500" xmlns="http://www.w3.org/2000/svg" xmlns:xlink="http://www.w3.org/1999/xlink"><g id="tight-bounds" transform="matrix(1,0,0,1,0.2400000000000091,0.09861108662215656)"><svg viewBox="0 0 395.52 265.8027778267557" height="265.8027778267557" width="395.52"><g><svg viewBox="0 0 395.52 265.8027778267557" height="265.8027778267557" width="395.52"><g transform="matrix(1,0,0,1,0,135.762445043434)"><svg viewBox="0 0 395.52 130.04033278332167" height="130.04033278332167" width="395.52"><g id="textblocktransform"><svg viewBox="0 0 395.52 130.04033278332167" height="130.04033278332167" width="395.52" id="textblock"><g><svg viewBox="0 0 395.52 82.24880782670087" height="82.24880782670087" width="395.52"><g transform="matrix(1,0,0,1,0,0)"><svg width="395.52" viewBox="1.4487970114058357 -13.556886093750002 241.09520918193468 50.13503370714235" height="82.24880782670087" data-palette-color="#fbb04b"><path d="M5.838 13.059v0c-0.87-0.23-1.55-0.696-2.04-1.397-0.492-0.695-0.61-1.788-0.355-3.28v0c0.227-1.119 0.408-2.368 0.545-3.745 0.144-1.382 0.211-2.716 0.199-4.002-0.007-1.278-0.13-2.313-0.369-3.107v0c-0.132-0.414-0.314-0.745-0.545-0.992-0.223-0.252-0.603-0.483-1.14-0.694v0c-0.346-0.126-0.558-0.303-0.636-0.53-0.078-0.227-0.061-0.551 0.049-0.97v0c0.351-1.328 0.974-2.211 1.869-2.65 0.895-0.439 1.81-0.535 2.745-0.289v0c0.973 0.257 1.699 0.787 2.176 1.589 0.478 0.802 0.761 1.766 0.85 2.893 0.08 1.131 0.027 2.338-0.16 3.619-0.18 1.283-0.437 2.556-0.771 3.82v0c-0.136 0.516-0.289 1.055-0.458 1.616-0.163 0.564-0.295 1.039-0.397 1.426v0c-0.094 0.355-0.092 0.648 0.005 0.881 0.091 0.231 0.346 0.402 0.764 0.512v0c0.522 0.138 1.162 0.145 1.919 0.02 0.759-0.131 1.546-0.398 2.363-0.803 0.819-0.411 1.552-0.955 2.2-1.632 0.64-0.672 1.088-1.495 1.345-2.468v0c0.145-0.548 0.212-1.154 0.201-1.819-0.019-0.66-0.166-1.251-0.442-1.772v0c-0.276-0.521-0.472-0.928-0.588-1.22-0.109-0.291-0.121-0.597-0.036-0.92v0c0.153-0.58 0.558-1.042 1.214-1.386 0.664-0.349 1.399-0.572 2.204-0.669 0.805-0.098 1.481-0.074 2.03 0.07v0c0.941 0.249 1.437 0.797 1.489 1.645 0.053 0.842-0.043 1.73-0.29 2.665v0c-0.47 1.779-1.283 3.553-2.441 5.323-1.164 1.768-2.515 3.349-4.055 4.741-1.547 1.391-3.143 2.424-4.791 3.1-1.645 0.669-3.196 0.811-4.653 0.425zM30.837-7.113v0c-0.903-0.237-1.576-0.682-2.017-1.334-0.436-0.645-0.548-1.438-0.336-2.382v0c0.26-1.007 0.787-1.757 1.581-2.248 0.8-0.49 1.701-0.605 2.701-0.347v0c0.942 0.246 1.621 0.692 2.037 1.339 0.423 0.642 0.512 1.43 0.268 2.366v0c-0.253 0.975-0.76 1.712-1.522 2.211-0.761 0.499-1.665 0.63-2.712 0.395zM25.313 17.71v0c-0.976-0.219-1.683-0.661-2.121-1.327-0.433-0.658-0.503-1.64-0.209-2.948v0c0.168-0.748 0.408-1.466 0.72-2.154 0.304-0.683 0.631-1.348 0.98-1.994v0c0.388-0.664 0.741-1.354 1.059-2.068 0.319-0.721 0.574-1.504 0.764-2.35v0c0.131-0.585 0.173-1.167 0.125-1.745-0.041-0.576-0.309-1.057-0.803-1.441v0c-0.372-0.323-0.686-0.643-0.943-0.96-0.252-0.309-0.333-0.662-0.244-1.059v0c0.102-0.455 0.423-0.896 0.963-1.321 0.54-0.425 1.203-0.748 1.99-0.967 0.787-0.22 1.555-0.245 2.303-0.078v0c0.813 0.183 1.361 0.528 1.643 1.036 0.281 0.514 0.413 1.111 0.398 1.79-0.016 0.68-0.101 1.364-0.257 2.054v0c-0.234 1.041-0.544 2.04-0.929 2.999-0.386 0.959-0.756 1.846-1.111 2.661v0c-0.269 0.589-0.494 1.136-0.676 1.642-0.182 0.506-0.325 0.99-0.428 1.452v0c-0.183 0.813-0.125 1.468 0.173 1.965 0.298 0.497 0.765 1.005 1.4 1.524v0c0.263 0.23 0.358 0.507 0.285 0.833v0c-0.058 0.26-0.283 0.637-0.674 1.13-0.386 0.501-0.949 0.908-1.688 1.219-0.733 0.314-1.64 0.349-2.72 0.107zM40.688 20.926v0c-0.886-0.161-1.6-0.571-2.144-1.232-0.545-0.654-0.749-1.735-0.612-3.241v0c0.138-1.134 0.22-2.392 0.248-3.776 0.035-1.389-0.004-2.724-0.118-4.006-0.108-1.273-0.312-2.296-0.612-3.068v0c-0.164-0.402-0.371-0.718-0.621-0.946-0.242-0.234-0.639-0.434-1.192-0.602v0c-0.355-0.098-0.58-0.258-0.676-0.479-0.096-0.221-0.105-0.544-0.027-0.97v0c0.245-1.351 0.796-2.281 1.654-2.79 0.858-0.508 1.762-0.676 2.714-0.504v0c0.991 0.18 1.755 0.65 2.295 1.412 0.539 0.762 0.898 1.701 1.074 2.817 0.169 1.122 0.211 2.328 0.127 3.621-0.079 1.293-0.235 2.583-0.468 3.869v0c-0.095 0.525-0.205 1.074-0.329 1.647-0.118 0.575-0.212 1.059-0.284 1.453v0c-0.065 0.361-0.041 0.653 0.075 0.877 0.109 0.223 0.376 0.373 0.802 0.451v0c0.531 0.096 1.169 0.053 1.914-0.131 0.746-0.19 1.51-0.519 2.293-0.987 0.784-0.474 1.472-1.075 2.064-1.8 0.585-0.721 0.967-1.576 1.147-2.567v0c0.101-0.558 0.12-1.167 0.057-1.829-0.071-0.656-0.264-1.234-0.581-1.731v0c-0.316-0.498-0.544-0.888-0.682-1.171-0.132-0.281-0.168-0.586-0.108-0.914v0c0.107-0.59 0.474-1.083 1.101-1.477 0.635-0.4 1.35-0.68 2.144-0.841 0.795-0.161 1.471-0.191 2.029-0.09v0c0.958 0.174 1.496 0.681 1.614 1.523 0.12 0.835 0.093 1.728-0.079 2.679v0c-0.328 1.81-0.999 3.643-2.014 5.499-1.021 1.854-2.244 3.536-3.669 5.046-1.432 1.509-2.943 2.664-4.531 3.467-1.588 0.796-3.123 1.06-4.605 0.791zM63.894 24.569v0c-2.518-0.335-4.385-1.316-5.601-2.944-1.216-1.628-1.652-3.737-1.307-6.328v0c0.313-2.353 1.109-4.422 2.39-6.209 1.287-1.786 2.875-3.135 4.765-4.047 1.89-0.912 3.879-1.229 5.967-0.951v0c1.989 0.265 3.517 0.965 4.583 2.102 1.066 1.137 1.491 2.519 1.275 4.145v0c-0.172 1.295-0.731 2.435-1.676 3.419-0.939 0.992-2.116 1.723-3.53 2.193-1.407 0.465-2.923 0.59-4.549 0.374v0c-1.989-0.265-3.555-0.927-4.699-1.987v0c-0.17 1.531 0.189 2.826 1.077 3.886 0.887 1.066 2.127 1.705 3.72 1.917v0c0.958 0.127 1.966 0.083 3.024-0.132 1.058-0.216 1.993-0.572 2.805-1.07v0c0.515-0.335 0.971-0.476 1.368-0.423v0c0.33 0.044 0.591 0.186 0.781 0.426 0.189 0.247 0.262 0.536 0.217 0.867v0c-0.098 0.734-0.857 1.611-2.277 2.632v0c-2.503 1.826-5.28 2.536-8.333 2.13zM66.202 12.982v0c1.19 0.158 2.217 0.043 3.082-0.346 0.859-0.39 1.339-0.969 1.442-1.735v0c0.084-0.628-0.116-1.152-0.598-1.573-0.49-0.415-1.197-0.684-2.122-0.807v0c-1.229-0.164-2.343 0.018-3.341 0.544-0.997 0.52-1.771 1.335-2.323 2.446v0c0.423 0.359 0.99 0.67 1.702 0.932 0.705 0.262 1.424 0.442 2.158 0.539zM79.82 26.293v0c-0.365-0.029-0.706-0.164-1.021-0.403-0.315-0.246-0.424-0.549-0.328-0.91v0c0.713-2.631 1.357-5.305 1.93-8.021 0.567-2.723 0.963-5.487 1.189-8.291v0c0.198-2.465 0.295-4.705 0.29-6.719-0.005-2.014-0.382-3.973-1.132-5.879v0c-0.137-0.379-0.244-0.705-0.323-0.979-0.078-0.274-0.108-0.53-0.088-0.77v0c0.051-0.631 0.466-1.217 1.245-1.756 0.779-0.539 1.587-0.775 2.424-0.707v0c1.196 0.096 1.955 0.893 2.276 2.39 0.314 1.503 0.355 3.687 0.125 6.551v0c-0.277 3.436-0.717 6.413-1.321 8.933-0.611 2.519-1.119 4.431-1.525 5.736v0l0.191 0.116c0.802-1.574 1.78-3.08 2.932-4.52 1.159-1.432 2.452-2.592 3.882-3.48 1.43-0.895 2.945-1.278 4.547-1.148v0c1.568 0.126 2.74 0.692 3.515 1.697 0.776 0.999 1.111 2.149 1.006 3.452v0c-0.124 1.535-0.785 2.856-1.984 3.963-1.2 1.114-2.712 1.999-4.538 2.655v0c0.34 1.171 0.883 2.114 1.628 2.83 0.752 0.709 1.743 1.113 2.973 1.212v0c0.399 0.032 0.734 0.026 1.005-0.019v0c0.447-0.064 0.632 0.372 0.556 1.309v0c-0.043 0.532-0.191 1.122-0.443 1.77-0.253 0.655-0.692 1.198-1.315 1.629-0.624 0.438-1.52 0.61-2.69 0.516v0c-1.562-0.126-2.797-0.687-3.707-1.683-0.91-0.996-1.586-2.191-2.029-3.584-0.443-1.393-0.76-2.77-0.952-4.13v0c-0.167-1.251 0.301-1.865 1.403-1.843v0c1.181-0.045 2.193-0.318 3.035-0.819 0.85-0.5 1.312-1.219 1.387-2.156v0c0.086-1.063-0.39-1.637-1.426-1.72v0c-0.665-0.053-1.359 0.135-2.082 0.565-0.723 0.423-1.404 0.947-2.043 1.571-0.632 0.618-1.159 1.228-1.582 1.829v0c-0.568 0.83-1.069 1.646-1.501 2.448-0.433 0.808-0.799 1.618-1.098 2.429v0l-0.162 2.004c-0.099 1.229-0.54 2.217-1.322 2.963-0.782 0.74-1.758 1.062-2.927 0.969zM110.119 28.266v0c-1.239-0.036-2.387-0.252-3.442-0.649-1.062-0.397-1.917-0.939-2.565-1.625-0.654-0.692-0.967-1.505-0.94-2.438v0c0.015-0.506 0.155-0.979 0.421-1.418 0.266-0.446 0.683-0.661 1.249-0.644v0c0.3 0.009 0.614 0.101 0.943 0.277v0c0.597 0.351 1.358 0.683 2.282 0.996 0.931 0.314 1.913 0.485 2.946 0.515v0c1.173 0.034 2.214-0.106 3.124-0.42 0.916-0.307 1.382-0.76 1.4-1.36v0c0.013-0.466-0.32-0.81-1.001-1.029-0.68-0.226-1.82-0.479-3.42-0.759v0c-1.094-0.232-2.157-0.496-3.188-0.793-1.025-0.296-1.865-0.781-2.519-1.453-0.648-0.672-0.953-1.641-0.917-2.907v0c0.036-1.239 0.413-2.426 1.133-3.559 0.72-1.133 1.774-2.063 3.162-2.79 1.395-0.733 3.079-1.072 5.051-1.015v0c1.033 0.03 2.032 0.175 2.999 0.437 0.96 0.261 1.752 0.637 2.378 1.129 0.62 0.485 0.919 1.077 0.9 1.776v0c-0.017 0.6-0.243 1.147-0.678 1.641-0.428 0.488-0.923 0.884-1.485 1.188-0.562 0.297-1.026 0.441-1.393 0.43v0c-0.267-0.008-0.578-0.2-0.934-0.577v0c-0.56-0.483-1.18-0.828-1.861-1.034-0.675-0.2-1.348-0.309-2.021-0.329v0c-1-0.029-1.814 0.098-2.442 0.38-0.628 0.282-0.949 0.656-0.963 1.123v0c-0.012 0.433 0.237 0.794 0.749 1.082 0.512 0.282 1.15 0.49 1.913 0.625 0.763 0.142 1.496 0.273 2.2 0.394v0c1.932 0.322 3.454 0.827 4.568 1.512 1.121 0.686 1.657 1.849 1.61 3.488v0c-0.037 1.266-0.433 2.515-1.188 3.747-0.756 1.232-1.822 2.232-3.198 3-1.376 0.761-3 1.114-4.873 1.06zM131.914 28.331v0c-2.306 0.045-4.165-0.546-5.575-1.772-1.411-1.226-2.14-3.059-2.187-5.499v0c-0.022-1.14 0.113-2.246 0.406-3.318 0.299-1.079 0.706-2.091 1.221-3.034v0c-0.527 0.344-0.923 0.518-1.19 0.523v0c-0.4 0.008-0.681-0.214-0.843-0.664-0.155-0.45-0.237-0.892-0.245-1.326v0c-0.015-0.767 0.13-1.379 0.434-1.838 0.311-0.459 0.614-0.809 0.91-1.048v0c0.688-0.613 1.779-1.295 3.271-2.044 1.492-0.749 3.292-1.144 5.398-1.184v0c2.873-0.056 5.121 0.704 6.746 2.279 1.617 1.576 2.454 3.8 2.509 6.673v0c0.043 2.24-0.384 4.282-1.282 6.126-0.905 1.838-2.173 3.309-3.805 4.415-1.639 1.099-3.562 1.669-5.768 1.711zM133.375 23.192v0c1.673-0.032 3.076-0.59 4.208-1.671 1.133-1.075 1.682-2.48 1.649-4.213v0c-0.035-1.806-0.646-3.085-1.834-3.835-1.181-0.744-2.542-1.101-4.082-1.072v0c-0.7 0.014-1.335 0.093-1.906 0.237-0.564 0.144-1.094 0.321-1.59 0.531v0c-0.46 0.676-0.866 1.437-1.216 2.284-0.35 0.84-0.516 1.764-0.496 2.77v0c0.032 1.673 0.56 2.926 1.583 3.76 1.016 0.834 2.244 1.237 3.684 1.209zM151.025 36.569v0c-0.638 0.046-1.135-0.076-1.49-0.365-0.355-0.295-0.546-0.863-0.572-1.704v0c-0.036-0.499-0.056-1.393-0.061-2.682-0.012-1.289-0.004-2.814 0.024-4.573 0.021-1.766 0.057-3.607 0.107-5.522 0.044-1.915 0.086-3.762 0.126-5.543 0.047-1.781 0.091-3.308 0.135-4.581v0c-0.337 0.057-0.654 0.103-0.953 0.138-0.298 0.041-0.594 0.106-0.889 0.194v0c-0.328 0.09-0.575 0.141-0.741 0.153v0c-0.399 0.028-0.682-0.195-0.849-0.671-0.174-0.475-0.277-0.929-0.308-1.362v0c-0.036-0.499 0.011-0.92 0.14-1.263 0.129-0.343 0.436-0.633 0.921-0.868v0c0.289-0.161 0.673-0.309 1.151-0.443 0.472-0.134 0.974-0.253 1.509-0.358v0c0.026-1.98 0.152-3.867 0.378-5.662 0.22-1.787 0.655-3.325 1.304-4.614v0c0.674-1.325 1.643-2.4 2.908-3.225 1.264-0.825 2.582-1.287 3.952-1.385v0c0.997-0.071 1.952 0.051 2.863 0.367 0.912 0.323 1.668 0.807 2.269 1.452 0.601 0.646 0.932 1.401 0.994 2.265v0c0.045 0.632-0.078 1.162-0.368 1.591-0.284 0.421-0.629 0.646-1.034 0.675v0c-0.166 0.012-0.351-0.008-0.556-0.061-0.204-0.052-0.408-0.105-0.613-0.156v0c-0.378-0.14-0.847-0.25-1.407-0.331-0.56-0.08-1.157-0.098-1.788-0.053v0c-1.303 0.093-2.306 0.519-3.007 1.277-0.695 0.751-1.192 1.749-1.491 2.994-0.299 1.244-0.507 2.676-0.625 4.295v0c0.693-0.116 1.44-0.236 2.24-0.36 0.793-0.123 1.439-0.203 1.938-0.239v0c0.805-0.057 1.442 0.024 1.912 0.245 0.463 0.214 0.72 0.674 0.77 1.379v0c0.031 0.432-0.006 0.946-0.111 1.541-0.111 0.596-0.301 1.128-0.568 1.595-0.267 0.474-0.6 0.725-0.999 0.753v0c-0.166 0.012-0.456-0.018-0.868-0.088v0c-0.437-0.036-1.008-0.078-1.714-0.129-0.712-0.049-1.601-0.053-2.667-0.01v0c-0.03 1.446-0.027 3.046 0.012 4.801 0.045 1.755 0.137 3.599 0.274 5.535v0c0.15 2.101 0.346 3.915 0.589 5.442 0.243 1.527 0.465 2.767 0.667 3.722v0c0.098 0.434 0.175 0.816 0.232 1.146 0.057 0.33 0.093 0.595 0.107 0.794v0c0.069 0.971-0.111 1.729-0.54 2.275-0.428 0.552-0.955 0.95-1.579 1.195-0.617 0.245-1.192 0.386-1.724 0.424zM170.099 26.004v0c-2.03 0.204-3.553-0.323-4.571-1.581-1.018-1.258-1.634-2.951-1.848-5.08v0c-0.077-0.769-0.11-1.523-0.097-2.262 0.006-0.738 0.022-1.48 0.048-2.226v0c0.026-0.74 0.054-1.463 0.083-2.169 0.029-0.713 0.045-1.388 0.047-2.025v0c-0.676 0.269-1.363 0.439-2.059 0.509v0c-0.736 0.074-1.134-0.187-1.194-0.784v0c-0.064-0.637 0.143-1.442 0.621-2.415 0.472-0.972 1.087-1.949 1.846-2.929 0.759-0.981 1.532-1.823 2.319-2.525 0.787-0.702 1.479-1.084 2.076-1.144v0c0.73-0.073 1.158 0.523 1.285 1.791v0c0.033 0.332 0.044 0.672 0.033 1.021-0.018 0.357-0.041 0.721-0.071 1.093v0c0.623-0.197 1.252-0.377 1.885-0.541 0.64-0.165 1.262-0.278 1.866-0.339v0c0.763-0.077 1.367-0.004 1.811 0.22 0.438 0.224 0.696 0.721 0.773 1.49v0c0.08 0.796-0.029 1.614-0.326 2.455-0.305 0.835-0.689 1.275-1.153 1.322v0c-0.1 0.01-0.267 0.01-0.503 0-0.242-0.009-0.532-0.03-0.871-0.063v0c-0.441-0.056-0.998-0.101-1.671-0.133-0.68-0.032-1.484-0.001-2.413 0.092v0c-0.129 1.052-0.232 2.127-0.309 3.227-0.07 1.099-0.062 2.083 0.026 2.952v0c0.194 1.93 0.807 3.195 1.839 3.795 1.039 0.599 2.473 0.806 4.304 0.622v0c0.564-0.057 0.971-0.004 1.222 0.159 0.251 0.162 0.4 0.476 0.446 0.94v0c0.11 1.094-0.363 2.083-1.42 2.967-1.051 0.876-2.392 1.397-4.024 1.561zM186.24 23.944v0c-1.985 0.294-3.646-0.134-4.982-1.284-1.337-1.156-2.175-2.875-2.513-5.157v0c-0.25-1.688-0.225-3.384 0.075-5.086 0.307-1.703 0.863-3.272 1.668-4.705 0.798-1.439 1.803-2.636 3.016-3.591 1.206-0.96 2.586-1.556 4.142-1.787v0c0.996-0.148 1.905-0.131 2.727 0.051 0.822 0.181 1.565 0.462 2.228 0.842v0c-0.366-2.244-0.781-4.245-1.244-6.003-0.463-1.758-1.19-3.342-2.18-4.751v0c-0.171-0.244-0.312-0.469-0.424-0.675-0.117-0.198-0.191-0.4-0.221-0.604v0c-0.068-0.462 0.059-0.919 0.384-1.371 0.324-0.452 0.746-0.852 1.267-1.199 0.521-0.347 1.029-0.557 1.524-0.631v0c0.897-0.133 1.627 0.153 2.19 0.859 0.557 0.713 1.001 1.732 1.333 3.057 0.33 1.319 0.623 2.839 0.878 4.561v0c0.372 2.513 0.593 4.795 0.661 6.847 0.068 2.052 0.116 3.855 0.145 5.407v0c0.015 1.009 0.027 1.886 0.036 2.633 0.009 0.74 0.047 1.341 0.116 1.803v0c0.348 2.348 1.563 3.59 3.646 3.725v0c0.542 0.021 0.857 0.328 0.945 0.922v0c0.054 0.363 0.017 0.84-0.111 1.431-0.134 0.599-0.448 1.162-0.943 1.687-0.501 0.533-1.279 0.877-2.334 1.033v0c-1.424 0.211-2.455-0.125-3.091-1.007-0.637-0.889-1.101-2.31-1.39-4.263v0c-0.68 1.826-1.646 3.425-2.898 4.797-1.247 1.364-2.797 2.184-4.65 2.459zM186.986 18.404v0c0.93-0.138 1.812-0.572 2.648-1.302 0.842-0.731 1.549-1.665 2.122-2.801v0c0.336-0.69 0.618-1.467 0.847-2.33 0.229-0.863 0.431-1.729 0.606-2.597v0c-1.914-1.273-3.897-1.758-5.947-1.453v0c-1.787 0.265-3.132 1.014-4.035 2.246-0.896 1.231-1.226 2.642-0.99 4.23v0c0.201 1.358 0.761 2.408 1.68 3.148 0.925 0.739 1.948 1.025 3.069 0.859zM213.704 19.242v0c-2.489 0.505-4.574 0.187-6.255-0.955-1.681-1.142-2.781-2.993-3.3-5.554v0c-0.472-2.326-0.395-4.542 0.232-6.649 0.633-2.108 1.694-3.902 3.183-5.381 1.489-1.479 3.266-2.428 5.33-2.847v0c1.967-0.399 3.639-0.235 5.018 0.491 1.379 0.727 2.231 1.894 2.558 3.502v0c0.26 1.281 0.104 2.54-0.468 3.778-0.564 1.244-1.437 2.319-2.621 3.226-1.178 0.899-2.571 1.512-4.178 1.838v0c-1.967 0.399-3.663 0.284-5.09-0.345v0c0.339 1.503 1.101 2.61 2.287 3.322 1.187 0.718 2.567 0.918 4.141 0.598v0c0.947-0.192 1.886-0.563 2.815-1.112 0.929-0.549 1.697-1.191 2.303-1.927v0c0.378-0.485 0.763-0.767 1.155-0.846v0c0.327-0.066 0.619-0.017 0.877 0.148 0.259 0.172 0.422 0.421 0.488 0.748v0c0.147 0.725-0.284 1.802-1.293 3.232v0c-1.77 2.543-4.164 4.121-7.182 4.733zM212.104 7.536v0c1.176-0.239 2.11-0.683 2.801-1.333 0.685-0.649 0.95-1.353 0.796-2.111v0c-0.126-0.621-0.485-1.051-1.079-1.291-0.598-0.232-1.355-0.256-2.269-0.07v0c-1.215 0.247-2.209 0.782-2.98 1.605-0.773 0.817-1.239 1.84-1.398 3.069v0c0.517 0.201 1.155 0.31 1.913 0.326 0.752 0.017 1.49-0.047 2.216-0.195zM234.76 14.431v0c-0.871 0.225-1.693 0.151-2.463-0.221-0.769-0.366-1.407-1.262-1.913-2.687v0c-0.35-1.087-0.802-2.265-1.356-3.534-0.55-1.276-1.144-2.472-1.784-3.587-0.631-1.111-1.245-1.954-1.841-2.531v0c-0.318-0.297-0.638-0.496-0.96-0.598-0.318-0.111-0.763-0.127-1.335-0.048v0c-0.363 0.059-0.635 0.009-0.813-0.152-0.179-0.16-0.323-0.45-0.431-0.87v0c-0.343-1.33-0.232-2.405 0.334-3.226 0.566-0.821 1.317-1.352 2.253-1.593v0c0.975-0.252 1.866-0.145 2.675 0.321 0.809 0.466 1.527 1.169 2.155 2.108 0.623 0.948 1.167 2.026 1.631 3.235 0.47 1.207 0.869 2.444 1.195 3.709v0c0.133 0.516 0.264 1.061 0.391 1.634 0.134 0.571 0.251 1.051 0.351 1.438v0c0.092 0.355 0.237 0.61 0.435 0.766 0.192 0.157 0.498 0.181 0.918 0.072v0c0.523-0.135 1.084-0.442 1.683-0.92 0.598-0.485 1.154-1.104 1.669-1.856 0.513-0.759 0.887-1.592 1.121-2.499 0.229-0.899 0.218-1.836-0.034-2.811v0c-0.142-0.549-0.38-1.11-0.714-1.685-0.339-0.567-0.756-1.01-1.252-1.329v0c-0.496-0.32-0.866-0.579-1.11-0.778-0.238-0.2-0.398-0.462-0.481-0.784v0c-0.15-0.581-0.023-1.182 0.381-1.803 0.409-0.629 0.941-1.183 1.595-1.661 0.654-0.479 1.256-0.789 1.805-0.931v0c0.942-0.243 1.644-0.008 2.103 0.706 0.458 0.708 0.808 1.53 1.05 2.466v0c0.46 1.782 0.618 3.727 0.475 5.837-0.15 2.111-0.557 4.151-1.219 6.119-0.669 1.97-1.556 3.652-2.663 5.046-1.108 1.388-2.392 2.27-3.851 2.647z" opacity="1" transform="matrix(1,0,0,1,0,0)" fill="#fbb04b" class="wordmark-text-0" data-fill-palette-color="primary" id="text-0"></path></svg></g></svg></g><g transform="matrix(1,0,0,1,118.31980799999998,110.8593691272626)"><svg viewBox="0 0 158.88038400000002 19.180963656059088" height="19.180963656059088" width="158.88038400000002"><g transform="matrix(1,0,0,1,0,0)"><svg width="158.88038400000002" viewBox="0.78 -32.03 267.71000000000004 32.32" height="19.180963656059088" data-palette-color="#fbb04b"><path d="M16.63-23.75L11.87 0 5.3 0 0.78-23.75 4.05-23.75 5.91-11.82 7.64-2.71 9.52-2.71 11.35-11.82 13.33-23.75 16.63-23.75ZM23.41-31.69L23.41-28.17 20.26-28.17 20.26-31.69 23.41-31.69ZM23.41-23.75L23.41 0 20.24 0 20.24-23.75 23.41-23.75ZM42.89-23.75L38.13 0 31.56 0 27.05-23.75 30.32-23.75 32.17-11.82 33.91-2.71 35.79-2.71 37.62-11.82 39.59-23.75 42.89-23.75ZM53.26 0.29L53.26 0.29Q49.24 0.29 47.51-0.98 45.79-2.25 45.67-5.13L45.67-5.13Q45.57-6.93 45.54-9.38 45.5-11.82 45.54-14.28 45.57-16.75 45.67-18.58L45.67-18.58Q45.79-21.53 47.56-22.8 49.33-24.07 53.26-24.07L53.26-24.07Q56.97-24.07 58.64-22.83 60.3-21.58 60.47-18.73L60.47-18.73Q60.51-17.87 60.56-15.75 60.61-13.62 60.42-11.23L60.42-11.23 48.72-11.23Q48.72-9.69 48.75-8.11 48.77-6.52 48.85-4.81L48.85-4.81Q48.87-3.47 49.87-2.95 50.87-2.44 53.17-2.44L53.17-2.44Q55.44-2.44 56.36-2.95 57.29-3.47 57.39-4.81L57.39-4.81Q57.46-6.15 57.39-8.47L57.39-8.47 60.42-8.47Q60.54-7.76 60.53-6.82 60.51-5.88 60.47-5.13L60.47-5.13Q60.3-2.25 58.72-0.98 57.15 0.29 53.26 0.29ZM48.72-13.82L48.72-13.82 57.44-13.82Q57.49-15.48 57.49-16.99 57.49-18.51 57.39-19.07L57.39-19.07Q57.29-20.29 56.34-20.81 55.39-21.34 53.26-21.34L53.26-21.34Q50.9-21.34 49.88-20.81 48.87-20.29 48.85-19.07L48.85-19.07Q48.77-17.65 48.74-16.36 48.7-15.06 48.72-13.82ZM67.62-7.89L67.62 0 64.57 0 64.57-31.69 67.57-31.69 67.57-23.88 67.3-13.53 68.13-13.53 70.5-18.14 74.16-23.75 77.48-23.75 71.43-14.18 78.9 0 75.6 0 69.57-10.5 67.62-7.89ZM85.27-21.02L85.27 0 82.14 0 82.14-21.02 79.87-21.02 79.87-23.75 82.14-23.75 82.14-26.61Q82.14-29.52 83.56-30.77 84.97-32.03 88.22-32.03L88.22-32.03Q88.9-32.03 89.75-31.96 90.59-31.88 91.25-31.76L91.25-31.76 91.25-29.13Q89.93-29.2 88.29-29.2L88.29-29.2Q86.63-29.2 85.95-28.66 85.27-28.13 85.27-26.88L85.27-26.88 85.27-23.75 90.47-23.75 90.47-21.02 85.27-21.02ZM96.42-19.19L96.42 0 93.27 0 93.27-23.75 96.42-23.75 96.42-21.53 97.1-21.53Q97.74-22.75 98.79-23.41 99.84-24.07 101.4-24.07L101.4-24.07Q103.74-24.07 104.88-22.84 106.02-21.61 106.02-18.58L106.02-18.58Q106.02-17.92 105.97-17.02 105.92-16.11 105.82-15.41L105.82-15.41 102.79-15.41Q102.84-15.65 102.85-16.26 102.87-16.87 102.88-17.48 102.89-18.09 102.89-18.31L102.89-18.31Q102.89-20.12 102.28-20.76 101.67-21.41 100.33-21.41L100.33-21.41Q97.47-21.41 96.42-19.19L96.42-19.19ZM116.95 0.29L116.95 0.29Q112.97 0.29 111.34-1.07 109.7-2.44 109.58-5.62L109.58-5.62Q109.43-7.42 109.38-9.63 109.33-11.84 109.38-14.09 109.43-16.33 109.58-18.16L109.58-18.16Q109.7-21.34 111.35-22.71 113-24.07 116.95-24.07L116.95-24.07Q120.95-24.07 122.55-22.71 124.15-21.34 124.27-18.16L124.27-18.16Q124.42-16.36 124.47-14.15 124.52-11.94 124.47-9.7 124.42-7.47 124.27-5.62L124.27-5.62Q124.15-2.47 122.55-1.09 120.95 0.29 116.95 0.29ZM116.95-2.44L116.95-2.44Q119.2-2.44 120.15-2.99 121.1-3.54 121.17-4.81L121.17-4.81Q121.42-8.62 121.42-11.89 121.42-15.16 121.17-18.97L121.17-18.97Q121.1-20.26 120.17-20.8 119.25-21.34 116.95-21.34L116.95-21.34Q114.66-21.34 113.72-20.8 112.78-20.26 112.7-18.97L112.7-18.97Q112.48-15.16 112.47-11.88 112.46-8.59 112.7-4.81L112.7-4.81Q112.75-3.54 113.74-2.99 114.73-2.44 116.95-2.44ZM131.84-19.19L131.84 0 128.69 0 128.69-23.75 131.84-23.75 131.84-21.53 132.6-21.53Q133.35-22.75 134.59-23.41 135.82-24.07 137.7-24.07L137.7-24.07Q140.46-24.07 141.8-22.86 143.14-21.66 143.14-18.82L143.14-18.82 143.14 0 140.02 0 140.02-19.09Q140.02-20.31 139.25-20.86 138.48-21.41 136.77-21.41L136.77-21.41Q135.06-21.41 133.77-20.83 132.48-20.24 131.84-19.19L131.84-19.19ZM155.08 0.29L155.08 0.29Q151.27 0.29 149.94-0.98 148.61-2.25 148.61-5.13L148.61-5.13 148.61-21.02 146.27-21.02 146.27-23.75 148.68-23.75 148.68-30.49 151.78-30.49 151.78-23.75 157.16-23.75 157.16-21.02 151.76-21.02 151.76-4.79Q151.76-3.44 152.32-2.93 152.88-2.42 155.15-2.42L155.15-2.42Q156.08-2.42 156.58-2.45 157.08-2.49 157.74-2.51L157.74-2.51 157.74 0.1Q157.16 0.2 156.47 0.24 155.79 0.29 155.08 0.29ZM167.63 0.29L167.63 0.29Q163.6 0.29 161.88-0.98 160.16-2.25 160.03-5.13L160.03-5.13Q159.94-6.93 159.9-9.38 159.86-11.82 159.9-14.28 159.94-16.75 160.03-18.58L160.03-18.58Q160.16-21.53 161.93-22.8 163.7-24.07 167.63-24.07L167.63-24.07Q171.34-24.07 173-22.83 174.66-21.58 174.83-18.73L174.83-18.73Q174.88-17.87 174.93-15.75 174.98-13.62 174.78-11.23L174.78-11.23 163.09-11.23Q163.09-9.69 163.11-8.11 163.13-6.52 163.21-4.81L163.21-4.81Q163.23-3.47 164.23-2.95 165.23-2.44 167.53-2.44L167.53-2.44Q169.8-2.44 170.73-2.95 171.65-3.47 171.75-4.81L171.75-4.81Q171.83-6.15 171.75-8.47L171.75-8.47 174.78-8.47Q174.9-7.76 174.89-6.82 174.88-5.88 174.83-5.13L174.83-5.13Q174.66-2.25 173.08-0.98 171.51 0.29 167.63 0.29ZM163.09-13.82L163.09-13.82 171.8-13.82Q171.85-15.48 171.85-16.99 171.85-18.51 171.75-19.07L171.75-19.07Q171.65-20.29 170.7-20.81 169.75-21.34 167.63-21.34L167.63-21.34Q165.26-21.34 164.25-20.81 163.23-20.29 163.21-19.07L163.21-19.07Q163.13-17.65 163.1-16.36 163.06-15.06 163.09-13.82ZM182.08-19.19L182.08 0 178.93 0 178.93-23.75 182.08-23.75 182.08-21.53 182.83-21.53Q183.59-22.75 184.82-23.41 186.06-24.07 187.94-24.07L187.94-24.07Q190.7-24.07 192.04-22.86 193.38-21.66 193.38-18.82L193.38-18.82 193.38 0 190.26 0 190.26-19.09Q190.26-20.31 189.49-20.86 188.72-21.41 187.01-21.41L187.01-21.41Q185.3-21.41 184.01-20.83 182.71-20.24 182.08-19.19L182.08-19.19ZM203.07 0.29L203.07 0.29Q200.31 0.29 198.97-0.93 197.63-2.15 197.55-4.96L197.55-4.96Q197.46-6.96 197.42-9.35 197.38-11.74 197.42-14.21 197.46-16.67 197.55-18.82L197.55-18.82Q197.63-21.66 199.01-22.86 200.39-24.07 203.12-24.07L203.12-24.07Q205.15-24.07 206.31-23.45 207.47-22.83 208.32-21.53L208.32-21.53 208.95-21.53 208.95-31.69 212.08-31.69 212.08 0 208.95 0 208.95-2.25 208.25-2.25Q207.42-1.03 206.26-0.37 205.1 0.29 203.07 0.29ZM203.97-2.37L203.97-2.37Q207.66-2.37 208.95-4.59L208.95-4.59 208.95-19.19Q207.68-21.41 204-21.41L204-21.41Q202.29-21.41 201.52-20.86 200.75-20.31 200.73-19.09L200.73-19.09Q200.58-15.43 200.6-11.66 200.63-7.89 200.73-4.69L200.73-4.69Q200.78-3.49 201.52-2.93 202.26-2.37 203.97-2.37ZM221.92 0.29L221.92 0.29Q219.16 0.29 217.81-0.93 216.47-2.15 216.4-4.96L216.4-4.96Q216.3-6.96 216.26-9.35 216.23-11.74 216.26-14.21 216.3-16.67 216.4-18.82L216.4-18.82Q216.47-21.66 217.85-22.86 219.23-24.07 221.96-24.07L221.96-24.07Q223.99-24.07 225.15-23.45 226.31-22.83 227.16-21.53L227.16-21.53 227.8-21.53 227.8-31.69 230.92-31.69 230.92 0 227.8 0 227.8-2.25 227.09-2.25Q226.26-1.03 225.1-0.37 223.94 0.29 221.92 0.29ZM222.82-2.37L222.82-2.37Q226.51-2.37 227.8-4.59L227.8-4.59 227.8-19.19Q226.53-21.41 222.84-21.41L222.84-21.41Q221.13-21.41 220.37-20.86 219.6-20.31 219.57-19.09L219.57-19.09Q219.43-15.43 219.45-11.66 219.47-7.89 219.57-4.69L219.57-4.69Q219.62-3.49 220.37-2.93 221.11-2.37 222.82-2.37ZM242.86 0.29L242.86 0.29Q238.83 0.29 237.11-0.98 235.39-2.25 235.27-5.13L235.27-5.13Q235.17-6.93 235.13-9.38 235.1-11.82 235.13-14.28 235.17-16.75 235.27-18.58L235.27-18.58Q235.39-21.53 237.16-22.8 238.93-24.07 242.86-24.07L242.86-24.07Q246.57-24.07 248.23-22.83 249.89-21.58 250.06-18.73L250.06-18.73Q250.11-17.87 250.16-15.75 250.21-13.62 250.01-11.23L250.01-11.23 238.32-11.23Q238.32-9.69 238.34-8.11 238.37-6.52 238.44-4.81L238.44-4.81Q238.47-3.47 239.47-2.95 240.47-2.44 242.76-2.44L242.76-2.44Q245.03-2.44 245.96-2.95 246.89-3.47 246.99-4.81L246.99-4.81Q247.06-6.15 246.99-8.47L246.99-8.47 250.01-8.47Q250.14-7.76 250.12-6.82 250.11-5.88 250.06-5.13L250.06-5.13Q249.89-2.25 248.32-0.98 246.74 0.29 242.86 0.29ZM238.32-13.82L238.32-13.82 247.04-13.82Q247.08-15.48 247.08-16.99 247.08-18.51 246.99-19.07L246.99-19.07Q246.89-20.29 245.94-20.81 244.98-21.34 242.86-21.34L242.86-21.34Q240.49-21.34 239.48-20.81 238.47-20.29 238.44-19.07L238.44-19.07Q238.37-17.65 238.33-16.36 238.3-15.06 238.32-13.82ZM268.49-23.75L263.73 0 257.16 0 252.65-23.75 255.92-23.75 257.78-11.82 259.51-2.71 261.39-2.71 263.22-11.82 265.2-23.75 268.49-23.75Z" opacity="1" transform="matrix(1,0,0,1,0,0)" fill="#fbb04b" class="slogan-text-1" data-fill-palette-color="secondary" id="text-1"></path></svg></g></svg></g></svg></g></svg></g><g transform="matrix(1,0,0,1,88.39711944699874,0)"><svg viewBox="0 0 218.7257611060025 130.04033278332167" height="130.04033278332167" width="218.7257611060025"><g><svg xmlns="http://www.w3.org/2000/svg" xmlns:xlink="http://www.w3.org/1999/xlink" version="1.1" x="0" y="0" viewBox="0.4354830713511585 18.129262101512378 99.46031993534928 59.13273789848762" enable-background="new 0 0 100 100" xml:space="preserve" height="130.04033278332167" width="218.7257611060025" class="icon-icon-0" data-fill-palette-color="accent" id="icon-0"><path fill-rule="evenodd" clip-rule="evenodd" d="M0.459 59.184C-0.234 44.107 14.533 34.223 25.718 39.029 24.826 27.38 32.815 20.12 43.807 18.386 53.303 16.887 61.295 22.073 65.481 30.782 74.762 19.466 96.014 31.749 87.273 46.276 102.934 46.371 107.448 76.569 80.67 77.262H19.329C8.907 77.262 0.459 67.99 0.459 59.703" fill="#8a8d56" data-fill-palette-color="accent"></path></svg></g></svg></g><g></g></svg></g><defs></defs></svg><rect width="395.52" height="265.8027778267557" fill="none" stroke="none" visibility="hidden"></rect></g></svg></g></svg>